<svg width="400" height="394" viewBox="0 0 400 394" fill="none" xmlns="http://www.w3.org/2000/svg">
<rect width="400" height="393.469" fill="white"/>
<g clip-path="url(#clip0_1_2)">
<path fill-rule="evenodd" clip-rule="evenodd" d="M199.523 40C111.311 40 40 111.837 40 200.709C40 271.749 85.6914 331.882 149.078 353.166C157.002 354.766 159.905 349.708 159.905 345.453C159.905 341.727 159.644 328.957 159.644 315.651C115.269 325.231 106.028 296.493 106.028 296.493C98.8963 277.868 88.3298 273.081 88.3298 273.081C73.8057 263.236 89.3878 263.236 89.3878 263.236C105.499 264.3 113.953 279.732 113.953 279.732C128.212 304.209 151.19 297.293 160.434 293.035C161.753 282.658 165.982 275.474 170.472 271.484C135.079 267.758 97.8416 253.923 97.8416 192.193C97.8416 174.632 104.176 160.264 114.214 149.091C112.63 145.1 107.082 128.601 115.801 106.518C115.801 106.518 129.27 102.26 159.641 123.014C172.644 119.496 186.053 117.706 199.523 117.691C212.993 117.691 226.723 119.556 239.402 123.014C269.776 102.26 283.246 106.518 283.246 106.518C291.964 128.601 286.413 145.1 284.829 149.091C295.131 160.264 301.205 174.632 301.205 192.193C301.205 253.923 263.967 267.491 228.31 271.484C234.122 276.539 239.138 286.116 239.138 301.283C239.138 322.834 238.877 340.131 238.877 345.45C238.877 349.708 241.783 354.766 249.704 353.169C313.091 331.879 358.782 271.749 358.782 200.709C359.043 111.837 287.471 40 199.523 40Z" fill="#24292F"/>
</g>
<path d="M147.618 156.47C141.782 156.47 137 161.337 137 167.151V225.093C137 230.907 141.782 235.774 147.617 235.774H251.719C257.554 235.774 262.336 230.907 262.336 225.093V167.152C262.336 161.338 257.553 156.471 251.719 156.471H150.566L150.564 156.469L147.618 156.47ZM147.611 166.013H251.719C252.344 166.013 252.795 166.436 252.795 167.153V225.093C252.795 225.81 252.342 226.233 251.719 226.233H147.617C146.994 226.233 146.541 225.81 146.541 225.093V167.151C146.541 166.436 146.992 166.016 147.611 166.013Z" fill="#24292F"/>
<path d="M156.389 216.222V176.022H168.088L179.785 190.802L191.478 176.022H203.174V216.222H191.478V193.166L179.784 207.946L168.086 193.166V216.222H156.389ZM229.493 216.222L211.948 196.713H223.645V176.022H235.343V196.712H247.041L229.493 216.222Z" fill="#24292F"/>
<defs>
<clipPath id="clip0_1_2">
<rect width="320" height="313.469" fill="white" transform="translate(40 40)"/>
</clipPath>
</defs>
</svg>
