<?xml version="1.0" encoding="utf-8"?>
 <!DOCTYPE svg PUBLIC "-//W3C//DTD SVG 20010904//EN" "http://www.w3.org/TR/2001/REC-SVG-20010904/DTD/svg10.dtd">
<svg xmlns="http://www.w3.org/2000/svg" xmlns:xlink="http://www.w3.org/1999/xlink" viewBox="-5.8 -5.8 40.6 40.6" class="w-full bg-white" url="https://qm.qq.com/q/bdnlaa3fHi" correct_level="medium" positioning_point_type="square" positioning_point_color="#000000" content_point_type="square" content_point_scale="1" content_point_opacity="1" content_point_color="#000000"><rect opacity="1" width="1.01" height="1.01" fill="#000000" x="7.995" y="-0.0050000000000000044"></rect><rect opacity="1" width="1.01" height="1.01" fill="#000000" x="8.995" y="-0.0050000000000000044"></rect><rect opacity="1" width="1.01" height="1.01" fill="#000000" x="10.995" y="-0.0050000000000000044"></rect><rect opacity="1" width="1.01" height="1.01" fill="#000000" x="11.995" y="-0.0050000000000000044"></rect><rect opacity="1" width="1.01" height="1.01" fill="#000000" x="12.995" y="-0.0050000000000000044"></rect><rect opacity="1" width="1.01" height="1.01" fill="#000000" x="13.995" y="-0.0050000000000000044"></rect><rect opacity="1" width="1.01" height="1.01" fill="#000000" x="14.995" y="-0.0050000000000000044"></rect><rect opacity="1" width="1.01" height="1.01" fill="#000000" x="15.995" y="-0.0050000000000000044"></rect><rect opacity="1" width="1.01" height="1.01" fill="#000000" x="17.995" y="-0.0050000000000000044"></rect><rect opacity="1" width="1.01" height="1.01" fill="#000000" x="19.995" y="-0.0050000000000000044"></rect><rect opacity="1" width="1.01" height="1.01" fill="#000000" x="9.995" y="0.995"></rect><rect opacity="1" width="1.01" height="1.01" fill="#000000" x="10.995" y="0.995"></rect><rect opacity="1" width="1.01" height="1.01" fill="#000000" x="13.995" y="0.995"></rect><rect opacity="1" width="1.01" height="1.01" fill="#000000" x="15.995" y="0.995"></rect><rect opacity="1" width="1.01" height="1.01" fill="#000000" x="16.995" y="0.995"></rect><rect width="1.01" height="1.01" fill="#000000" x="8.995" y="1.995" opacity="1"></rect><rect width="1.01" height="1.01" fill="#000000" x="9.995" y="1.995" opacity="1"></rect><rect opacity="1" width="1.01" height="1.01" fill="#000000" x="11.995" y="1.995"></rect><rect opacity="1" width="1.01" height="1.01" fill="#000000" x="12.995" y="1.995"></rect><rect opacity="1" width="1.01" height="1.01" fill="#000000" x="13.995" y="1.995"></rect><rect opacity="1" width="1.01" height="1.01" fill="#000000" x="14.995" y="1.995"></rect><rect opacity="1" width="1.01" height="1.01" fill="#000000" x="16.995" y="1.995"></rect><rect opacity="1" width="1.01" height="1.01" fill="#000000" x="19.995" y="1.995"></rect><rect fill="#000000" x="2" y="2" width="3" height="3"></rect><rect fill="none" stroke-width="1" stroke="#000000" x="0.5" y="0.5" width="6" height="6"></rect><rect opacity="1" width="1.01" height="1.01" fill="#000000" x="7.995" y="2.995"></rect><rect opacity="1" width="1.01" height="1.01" fill="#000000" x="9.995" y="2.995"></rect><rect opacity="1" width="1.01" height="1.01" fill="#000000" x="12.995" y="2.995"></rect><rect opacity="1" width="1.01" height="1.01" fill="#000000" x="14.995" y="2.995"></rect><rect opacity="1" width="1.01" height="1.01" fill="#000000" x="16.995" y="2.995"></rect><rect opacity="1" width="1.01" height="1.01" fill="#000000" x="19.995" y="2.995"></rect><rect fill="#000000" x="24" y="2" width="3" height="3"></rect><rect fill="none" x="22.5" y="0.5" width="6" height="6" stroke-width="1" stroke="#000000"></rect><rect opacity="1" width="1.01" height="1.01" fill="#000000" x="8.995" y="3.995"></rect><rect opacity="1" width="1.01" height="1.01" fill="#000000" x="9.995" y="3.995"></rect><rect opacity="1" width="1.01" height="1.01" fill="#000000" x="10.995" y="3.995"></rect><rect opacity="1" width="1.01" height="1.01" fill="#000000" x="12.995" y="3.995"></rect><rect opacity="1" width="1.01" height="1.01" fill="#000000" x="13.995" y="3.995"></rect><rect opacity="1" width="1.01" height="1.01" fill="#000000" x="16.995" y="3.995"></rect><rect opacity="1" width="1.01" height="1.01" fill="#000000" x="18.995" y="3.995"></rect><rect opacity="1" width="1.01" height="1.01" fill="#000000" x="7.995" y="4.995"></rect><rect opacity="1" width="1.01" height="1.01" fill="#000000" x="9.995" y="4.995"></rect><rect opacity="1" width="1.01" height="1.01" fill="#000000" x="10.995" y="4.995"></rect><rect opacity="1" width="1.01" height="1.01" fill="#000000" x="11.995" y="4.995"></rect><rect opacity="1" width="1.01" height="1.01" fill="#000000" x="12.995" y="4.995"></rect><rect opacity="1" width="1.01" height="1.01" fill="#000000" x="17.995" y="4.995"></rect><rect opacity="1" width="1.01" height="1.01" fill="#000000" x="18.995" y="4.995"></rect><rect opacity="1" width="1.01" height="1.01" fill="#000000" x="7.995" y="5.995"></rect><rect opacity="1" width="1.01" height="1.01" fill="#000000" x="9.995" y="5.995"></rect><rect opacity="1" width="1.01" height="1.01" fill="#000000" x="11.995" y="5.995"></rect><rect opacity="1" width="1.01" height="1.01" fill="#000000" x="13.995" y="5.995"></rect><rect opacity="1" width="1.01" height="1.01" fill="#000000" x="15.995" y="5.995"></rect><rect opacity="1" width="1.01" height="1.01" fill="#000000" x="17.995" y="5.995"></rect><rect opacity="1" width="1.01" height="1.01" fill="#000000" x="19.995" y="5.995"></rect><rect opacity="1" width="1.01" height="1.01" fill="#000000" x="8.995" y="6.995"></rect><rect opacity="1" width="1.01" height="1.01" fill="#000000" x="11.995" y="6.995"></rect><rect opacity="1" width="1.01" height="1.01" fill="#000000" x="15.995" y="6.995"></rect><rect opacity="1" width="1.01" height="1.01" fill="#000000" x="16.995" y="6.995"></rect><rect opacity="1" width="1.01" height="1.01" fill="#000000" x="18.995" y="6.995"></rect><rect opacity="1" width="1.01" height="1.01" fill="#000000" x="19.995" y="6.995"></rect><rect opacity="1" width="1.01" height="1.01" fill="#000000" x="4.995" y="7.995"></rect><rect opacity="1" width="1.01" height="1.01" fill="#000000" x="5.995" y="7.995"></rect><rect opacity="1" width="1.01" height="1.01" fill="#000000" x="7.995" y="7.995"></rect><rect opacity="1" width="1.01" height="1.01" fill="#000000" x="9.995" y="7.995"></rect><rect opacity="1" width="1.01" height="1.01" fill="#000000" x="10.995" y="7.995"></rect><rect opacity="1" width="1.01" height="1.01" fill="#000000" x="13.995" y="7.995"></rect><rect opacity="1" width="1.01" height="1.01" fill="#000000" x="15.995" y="7.995"></rect><rect opacity="1" width="1.01" height="1.01" fill="#000000" x="17.995" y="7.995"></rect><rect opacity="1" width="1.01" height="1.01" fill="#000000" x="18.995" y="7.995"></rect><rect opacity="1" width="1.01" height="1.01" fill="#000000" x="20.995" y="7.995"></rect><rect opacity="1" width="1.01" height="1.01" fill="#000000" x="22.995" y="7.995"></rect><rect opacity="1" width="1.01" height="1.01" fill="#000000" x="24.995" y="7.995"></rect><rect opacity="1" width="1.01" height="1.01" fill="#000000" x="27.995" y="7.995"></rect><rect opacity="1" width="1.01" height="1.01" fill="#000000" x="-0.0050000000000000044" y="8.995"></rect><rect opacity="1" width="1.01" height="1.01" fill="#000000" x="0.995" y="8.995"></rect><rect opacity="1" width="1.01" height="1.01" fill="#000000" x="1.995" y="8.995"></rect><rect opacity="1" width="1.01" height="1.01" fill="#000000" x="2.995" y="8.995"></rect><rect opacity="1" width="1.01" height="1.01" fill="#000000" x="4.995" y="8.995"></rect><rect opacity="1" width="1.01" height="1.01" fill="#000000" x="6.995" y="8.995"></rect><rect opacity="1" width="1.01" height="1.01" fill="#000000" x="7.995" y="8.995"></rect><rect opacity="1" width="1.01" height="1.01" fill="#000000" x="10.995" y="8.995"></rect><rect opacity="1" width="1.01" height="1.01" fill="#000000" x="11.995" y="8.995"></rect><rect opacity="1" width="1.01" height="1.01" fill="#000000" x="13.995" y="8.995"></rect><rect opacity="1" width="1.01" height="1.01" fill="#000000" x="19.995" y="8.995"></rect><rect opacity="1" width="1.01" height="1.01" fill="#000000" x="20.995" y="8.995"></rect><rect opacity="1" width="1.01" height="1.01" fill="#000000" x="24.995" y="8.995"></rect><rect opacity="1" width="1.01" height="1.01" fill="#000000" x="27.995" y="8.995"></rect><rect opacity="1" width="1.01" height="1.01" fill="#000000" x="1.995" y="9.995"></rect><rect opacity="1" width="1.01" height="1.01" fill="#000000" x="2.995" y="9.995"></rect><rect opacity="1" width="1.01" height="1.01" fill="#000000" x="3.995" y="9.995"></rect><rect opacity="1" width="1.01" height="1.01" fill="#000000" x="4.995" y="9.995"></rect><rect opacity="1" width="1.01" height="1.01" fill="#000000" x="5.995" y="9.995"></rect><rect opacity="1" width="1.01" height="1.01" fill="#000000" x="7.995" y="9.995"></rect><rect opacity="1" width="1.01" height="1.01" fill="#000000" x="8.995" y="9.995"></rect><rect opacity="1" width="1.01" height="1.01" fill="#000000" x="9.995" y="9.995"></rect><rect opacity="1" width="1.01" height="1.01" fill="#000000" x="14.995" y="9.995"></rect><rect opacity="1" width="1.01" height="1.01" fill="#000000" x="16.995" y="9.995"></rect><rect opacity="1" width="1.01" height="1.01" fill="#000000" x="17.995" y="9.995"></rect><rect opacity="1" width="1.01" height="1.01" fill="#000000" x="18.995" y="9.995"></rect><rect opacity="1" width="1.01" height="1.01" fill="#000000" x="21.995" y="9.995"></rect><rect opacity="1" width="1.01" height="1.01" fill="#000000" x="23.995" y="9.995"></rect><rect opacity="1" width="1.01" height="1.01" fill="#000000" x="26.995" y="9.995"></rect><rect opacity="1" width="1.01" height="1.01" fill="#000000" x="27.995" y="9.995"></rect><rect opacity="1" width="1.01" height="1.01" fill="#000000" x="-0.0050000000000000044" y="10.995"></rect><rect opacity="1" width="1.01" height="1.01" fill="#000000" x="0.995" y="10.995"></rect><rect opacity="1" width="1.01" height="1.01" fill="#000000" x="2.995" y="10.995"></rect><rect opacity="1" width="1.01" height="1.01" fill="#000000" x="4.995" y="10.995"></rect><rect opacity="1" width="1.01" height="1.01" fill="#000000" x="9.995" y="10.995"></rect><rect opacity="1" width="1.01" height="1.01" fill="#000000" x="11.995" y="10.995"></rect><rect opacity="1" width="1.01" height="1.01" fill="#000000" x="14.995" y="10.995"></rect><rect opacity="1" width="1.01" height="1.01" fill="#000000" x="16.995" y="10.995"></rect><rect opacity="1" width="1.01" height="1.01" fill="#000000" x="19.995" y="10.995"></rect><rect opacity="1" width="1.01" height="1.01" fill="#000000" x="20.995" y="10.995"></rect><rect opacity="1" width="1.01" height="1.01" fill="#000000" x="21.995" y="10.995"></rect><rect opacity="1" width="1.01" height="1.01" fill="#000000" x="22.995" y="10.995"></rect><rect opacity="1" width="1.01" height="1.01" fill="#000000" x="23.995" y="10.995"></rect><rect opacity="1" width="1.01" height="1.01" fill="#000000" x="24.995" y="10.995"></rect><rect opacity="1" width="1.01" height="1.01" fill="#000000" x="-0.0050000000000000044" y="11.995"></rect><rect opacity="1" width="1.01" height="1.01" fill="#000000" x="2.995" y="11.995"></rect><rect opacity="1" width="1.01" height="1.01" fill="#000000" x="3.995" y="11.995"></rect><rect opacity="1" width="1.01" height="1.01" fill="#000000" x="5.995" y="11.995"></rect><rect opacity="1" width="1.01" height="1.01" fill="#000000" x="8.995" y="11.995"></rect><rect opacity="1" width="1.01" height="1.01" fill="#000000" x="9.995" y="11.995"></rect><rect opacity="1" width="1.01" height="1.01" fill="#000000" x="11.995" y="11.995"></rect><rect opacity="1" width="1.01" height="1.01" fill="#000000" x="15.995" y="11.995"></rect><rect opacity="1" width="1.01" height="1.01" fill="#000000" x="16.995" y="11.995"></rect><rect opacity="1" width="1.01" height="1.01" fill="#000000" x="17.995" y="11.995"></rect><rect opacity="1" width="1.01" height="1.01" fill="#000000" x="20.995" y="11.995"></rect><rect opacity="1" width="1.01" height="1.01" fill="#000000" x="23.995" y="11.995"></rect><rect opacity="1" width="1.01" height="1.01" fill="#000000" x="24.995" y="11.995"></rect><rect opacity="1" width="1.01" height="1.01" fill="#000000" x="25.995" y="11.995"></rect><rect opacity="1" width="1.01" height="1.01" fill="#000000" x="27.995" y="11.995"></rect><rect opacity="1" width="1.01" height="1.01" fill="#000000" x="-0.0050000000000000044" y="12.995"></rect><rect opacity="1" width="1.01" height="1.01" fill="#000000" x="0.995" y="12.995"></rect><rect opacity="1" width="1.01" height="1.01" fill="#000000" x="1.995" y="12.995"></rect><rect opacity="1" width="1.01" height="1.01" fill="#000000" x="2.995" y="12.995"></rect><rect opacity="1" width="1.01" height="1.01" fill="#000000" x="3.995" y="12.995"></rect><rect opacity="1" width="1.01" height="1.01" fill="#000000" x="4.995" y="12.995"></rect><rect opacity="1" width="1.01" height="1.01" fill="#000000" x="14.995" y="12.995"></rect><rect opacity="1" width="1.01" height="1.01" fill="#000000" x="15.995" y="12.995"></rect><rect opacity="1" width="1.01" height="1.01" fill="#000000" x="17.995" y="12.995"></rect><rect opacity="1" width="1.01" height="1.01" fill="#000000" x="18.995" y="12.995"></rect><rect opacity="1" width="1.01" height="1.01" fill="#000000" x="20.995" y="12.995"></rect><rect opacity="1" width="1.01" height="1.01" fill="#000000" x="21.995" y="12.995"></rect><rect opacity="1" width="1.01" height="1.01" fill="#000000" x="22.995" y="12.995"></rect><rect opacity="1" width="1.01" height="1.01" fill="#000000" x="24.995" y="12.995"></rect><rect opacity="1" width="1.01" height="1.01" fill="#000000" x="25.995" y="12.995"></rect><rect opacity="1" width="1.01" height="1.01" fill="#000000" x="26.995" y="12.995"></rect><rect opacity="1" width="1.01" height="1.01" fill="#000000" x="0.995" y="13.995"></rect><rect opacity="1" width="1.01" height="1.01" fill="#000000" x="2.995" y="13.995"></rect><rect opacity="1" width="1.01" height="1.01" fill="#000000" x="3.995" y="13.995"></rect><rect opacity="1" width="1.01" height="1.01" fill="#000000" x="4.995" y="13.995"></rect><rect opacity="1" width="1.01" height="1.01" fill="#000000" x="5.995" y="13.995"></rect><rect opacity="1" width="1.01" height="1.01" fill="#000000" x="6.995" y="13.995"></rect><rect opacity="1" width="1.01" height="1.01" fill="#000000" x="8.995" y="13.995"></rect><rect opacity="1" width="1.01" height="1.01" fill="#000000" x="10.995" y="13.995"></rect><rect opacity="1" width="1.01" height="1.01" fill="#000000" x="14.995" y="13.995"></rect><rect opacity="1" width="1.01" height="1.01" fill="#000000" x="15.995" y="13.995"></rect><rect opacity="1" width="1.01" height="1.01" fill="#000000" x="19.995" y="13.995"></rect><rect opacity="1" width="1.01" height="1.01" fill="#000000" x="21.995" y="13.995"></rect><rect opacity="1" width="1.01" height="1.01" fill="#000000" x="23.995" y="13.995"></rect><rect opacity="1" width="1.01" height="1.01" fill="#000000" x="24.995" y="13.995"></rect><rect opacity="1" width="1.01" height="1.01" fill="#000000" x="25.995" y="13.995"></rect><rect opacity="1" width="1.01" height="1.01" fill="#000000" x="26.995" y="13.995"></rect><rect opacity="1" width="1.01" height="1.01" fill="#000000" x="27.995" y="13.995"></rect><rect opacity="1" width="1.01" height="1.01" fill="#000000" x="0.995" y="14.995"></rect><rect opacity="1" width="1.01" height="1.01" fill="#000000" x="2.995" y="14.995"></rect><rect opacity="1" width="1.01" height="1.01" fill="#000000" x="7.995" y="14.995"></rect><rect opacity="1" width="1.01" height="1.01" fill="#000000" x="8.995" y="14.995"></rect><rect opacity="1" width="1.01" height="1.01" fill="#000000" x="10.995" y="14.995"></rect><rect opacity="1" width="1.01" height="1.01" fill="#000000" x="12.995" y="14.995"></rect><rect opacity="1" width="1.01" height="1.01" fill="#000000" x="13.995" y="14.995"></rect><rect opacity="1" width="1.01" height="1.01" fill="#000000" x="15.995" y="14.995"></rect><rect opacity="1" width="1.01" height="1.01" fill="#000000" x="16.995" y="14.995"></rect><rect opacity="1" width="1.01" height="1.01" fill="#000000" x="18.995" y="14.995"></rect><rect opacity="1" width="1.01" height="1.01" fill="#000000" x="20.995" y="14.995"></rect><rect opacity="1" width="1.01" height="1.01" fill="#000000" x="21.995" y="14.995"></rect><rect opacity="1" width="1.01" height="1.01" fill="#000000" x="23.995" y="14.995"></rect><rect opacity="1" width="1.01" height="1.01" fill="#000000" x="24.995" y="14.995"></rect><rect opacity="1" width="1.01" height="1.01" fill="#000000" x="26.995" y="14.995"></rect><rect opacity="1" width="1.01" height="1.01" fill="#000000" x="27.995" y="14.995"></rect><rect opacity="1" width="1.01" height="1.01" fill="#000000" x="-0.0050000000000000044" y="15.995"></rect><rect opacity="1" width="1.01" height="1.01" fill="#000000" x="1.995" y="15.995"></rect><rect opacity="1" width="1.01" height="1.01" fill="#000000" x="3.995" y="15.995"></rect><rect opacity="1" width="1.01" height="1.01" fill="#000000" x="5.995" y="15.995"></rect><rect opacity="1" width="1.01" height="1.01" fill="#000000" x="9.995" y="15.995"></rect><rect opacity="1" width="1.01" height="1.01" fill="#000000" x="11.995" y="15.995"></rect><rect opacity="1" width="1.01" height="1.01" fill="#000000" x="13.995" y="15.995"></rect><rect opacity="1" width="1.01" height="1.01" fill="#000000" x="14.995" y="15.995"></rect><rect opacity="1" width="1.01" height="1.01" fill="#000000" x="15.995" y="15.995"></rect><rect opacity="1" width="1.01" height="1.01" fill="#000000" x="18.995" y="15.995"></rect><rect opacity="1" width="1.01" height="1.01" fill="#000000" x="19.995" y="15.995"></rect><rect opacity="1" width="1.01" height="1.01" fill="#000000" x="20.995" y="15.995"></rect><rect opacity="1" width="1.01" height="1.01" fill="#000000" x="22.995" y="15.995"></rect><rect opacity="1" width="1.01" height="1.01" fill="#000000" x="23.995" y="15.995"></rect><rect opacity="1" width="1.01" height="1.01" fill="#000000" x="24.995" y="15.995"></rect><rect opacity="1" width="1.01" height="1.01" fill="#000000" x="-0.0050000000000000044" y="16.995"></rect><rect opacity="1" width="1.01" height="1.01" fill="#000000" x="1.995" y="16.995"></rect><rect opacity="1" width="1.01" height="1.01" fill="#000000" x="3.995" y="16.995"></rect><rect opacity="1" width="1.01" height="1.01" fill="#000000" x="6.995" y="16.995"></rect><rect width="1.01" height="1.01" fill="#000000" x="8.995" y="16.995" opacity="1"></rect><rect width="1.01" height="1.01" fill="#000000" x="11.995" y="16.995" opacity="1"></rect><rect opacity="1" width="1.01" height="1.01" fill="#000000" x="12.995" y="16.995"></rect><rect opacity="1" width="1.01" height="1.01" fill="#000000" x="13.995" y="16.995"></rect><rect opacity="1" width="1.01" height="1.01" fill="#000000" x="14.995" y="16.995"></rect><rect opacity="1" width="1.01" height="1.01" fill="#000000" x="15.995" y="16.995"></rect><rect opacity="1" width="1.01" height="1.01" fill="#000000" x="17.995" y="16.995"></rect><rect opacity="1" width="1.01" height="1.01" fill="#000000" x="18.995" y="16.995"></rect><rect opacity="1" width="1.01" height="1.01" fill="#000000" x="20.995" y="16.995"></rect><rect opacity="1" width="1.01" height="1.01" fill="#000000" x="21.995" y="16.995"></rect><rect opacity="1" width="1.01" height="1.01" fill="#000000" x="25.995" y="16.995"></rect><rect opacity="1" width="1.01" height="1.01" fill="#000000" x="26.995" y="16.995"></rect><rect opacity="1" width="1.01" height="1.01" fill="#000000" x="27.995" y="16.995"></rect><rect opacity="1" width="1.01" height="1.01" fill="#000000" x="-0.0050000000000000044" y="17.995"></rect><rect opacity="1" width="1.01" height="1.01" fill="#000000" x="0.995" y="17.995"></rect><rect opacity="1" width="1.01" height="1.01" fill="#000000" x="1.995" y="17.995"></rect><rect opacity="1" width="1.01" height="1.01" fill="#000000" x="2.995" y="17.995"></rect><rect opacity="1" width="1.01" height="1.01" fill="#000000" x="3.995" y="17.995"></rect><rect opacity="1" width="1.01" height="1.01" fill="#000000" x="4.995" y="17.995"></rect><rect opacity="1" width="1.01" height="1.01" fill="#000000" x="5.995" y="17.995"></rect><rect opacity="1" width="1.01" height="1.01" fill="#000000" x="9.995" y="17.995"></rect><rect opacity="1" width="1.01" height="1.01" fill="#000000" x="10.995" y="17.995"></rect><rect opacity="1" width="1.01" height="1.01" fill="#000000" x="13.995" y="17.995"></rect><rect opacity="1" width="1.01" height="1.01" fill="#000000" x="14.995" y="17.995"></rect><rect opacity="1" width="1.01" height="1.01" fill="#000000" x="15.995" y="17.995"></rect><rect opacity="1" width="1.01" height="1.01" fill="#000000" x="16.995" y="17.995"></rect><rect opacity="1" width="1.01" height="1.01" fill="#000000" x="17.995" y="17.995"></rect><rect opacity="1" width="1.01" height="1.01" fill="#000000" x="18.995" y="17.995"></rect><rect opacity="1" width="1.01" height="1.01" fill="#000000" x="25.995" y="17.995"></rect><rect opacity="1" width="1.01" height="1.01" fill="#000000" x="-0.0050000000000000044" y="18.995"></rect><rect opacity="1" width="1.01" height="1.01" fill="#000000" x="2.995" y="18.995"></rect><rect opacity="1" width="1.01" height="1.01" fill="#000000" x="4.995" y="18.995"></rect><rect opacity="1" width="1.01" height="1.01" fill="#000000" x="6.995" y="18.995"></rect><rect opacity="1" width="1.01" height="1.01" fill="#000000" x="9.995" y="18.995"></rect><rect opacity="1" width="1.01" height="1.01" fill="#000000" x="11.995" y="18.995"></rect><rect opacity="1" width="1.01" height="1.01" fill="#000000" x="12.995" y="18.995"></rect><rect opacity="1" width="1.01" height="1.01" fill="#000000" x="14.995" y="18.995"></rect><rect opacity="1" width="1.01" height="1.01" fill="#000000" x="15.995" y="18.995"></rect><rect opacity="1" width="1.01" height="1.01" fill="#000000" x="18.995" y="18.995"></rect><rect opacity="1" width="1.01" height="1.01" fill="#000000" x="19.995" y="18.995"></rect><rect opacity="1" width="1.01" height="1.01" fill="#000000" x="20.995" y="18.995"></rect><rect opacity="1" width="1.01" height="1.01" fill="#000000" x="22.995" y="18.995"></rect><rect opacity="1" width="1.01" height="1.01" fill="#000000" x="24.995" y="18.995"></rect><rect opacity="1" width="1.01" height="1.01" fill="#000000" x="25.995" y="18.995"></rect><rect opacity="1" width="1.01" height="1.01" fill="#000000" x="26.995" y="18.995"></rect><rect opacity="1" width="1.01" height="1.01" fill="#000000" x="1.995" y="19.995"></rect><rect opacity="1" width="1.01" height="1.01" fill="#000000" x="4.995" y="19.995"></rect><rect opacity="1" width="1.01" height="1.01" fill="#000000" x="5.995" y="19.995"></rect><rect opacity="1" width="1.01" height="1.01" fill="#000000" x="8.995" y="19.995"></rect><rect opacity="1" width="1.01" height="1.01" fill="#000000" x="11.995" y="19.995"></rect><rect opacity="1" width="1.01" height="1.01" fill="#000000" x="13.995" y="19.995"></rect><rect opacity="1" width="1.01" height="1.01" fill="#000000" x="18.995" y="19.995"></rect><rect opacity="1" width="1.01" height="1.01" fill="#000000" x="19.995" y="19.995"></rect><rect opacity="1" width="1.01" height="1.01" fill="#000000" x="20.995" y="19.995"></rect><rect opacity="1" width="1.01" height="1.01" fill="#000000" x="21.995" y="19.995"></rect><rect opacity="1" width="1.01" height="1.01" fill="#000000" x="22.995" y="19.995"></rect><rect opacity="1" width="1.01" height="1.01" fill="#000000" x="23.995" y="19.995"></rect><rect opacity="1" width="1.01" height="1.01" fill="#000000" x="25.995" y="19.995"></rect><rect opacity="1" width="1.01" height="1.01" fill="#000000" x="26.995" y="19.995"></rect><rect opacity="1" width="1.01" height="1.01" fill="#000000" x="27.995" y="19.995"></rect><rect opacity="1" width="1.01" height="1.01" fill="#000000" x="7.995" y="20.995"></rect><rect opacity="1" width="1.01" height="1.01" fill="#000000" x="12.995" y="20.995"></rect><rect opacity="1" width="1.01" height="1.01" fill="#000000" x="13.995" y="20.995"></rect><rect opacity="1" width="1.01" height="1.01" fill="#000000" x="14.995" y="20.995"></rect><rect opacity="1" width="1.01" height="1.01" fill="#000000" x="15.995" y="20.995"></rect><rect opacity="1" width="1.01" height="1.01" fill="#000000" x="16.995" y="20.995"></rect><rect opacity="1" width="1.01" height="1.01" fill="#000000" x="19.995" y="20.995"></rect><rect opacity="1" width="1.01" height="1.01" fill="#000000" x="23.995" y="20.995"></rect><rect opacity="1" width="1.01" height="1.01" fill="#000000" x="27.995" y="20.995"></rect><rect opacity="1" width="1.01" height="1.01" fill="#000000" x="8.995" y="21.995"></rect><rect opacity="1" width="1.01" height="1.01" fill="#000000" x="11.995" y="21.995"></rect><rect opacity="1" width="1.01" height="1.01" fill="#000000" x="14.995" y="21.995"></rect><rect opacity="1" width="1.01" height="1.01" fill="#000000" x="16.995" y="21.995"></rect><rect opacity="1" width="1.01" height="1.01" fill="#000000" x="17.995" y="21.995"></rect><rect opacity="1" width="1.01" height="1.01" fill="#000000" x="19.995" y="21.995"></rect><rect opacity="1" width="1.01" height="1.01" fill="#000000" x="21.995" y="21.995"></rect><rect opacity="1" width="1.01" height="1.01" fill="#000000" x="23.995" y="21.995"></rect><rect opacity="1" width="1.01" height="1.01" fill="#000000" x="24.995" y="21.995"></rect><rect opacity="1" width="1.01" height="1.01" fill="#000000" x="26.995" y="21.995"></rect><rect opacity="1" width="1.01" height="1.01" fill="#000000" x="27.995" y="21.995"></rect><rect opacity="1" width="1.01" height="1.01" fill="#000000" x="7.995" y="22.995"></rect><rect opacity="1" width="1.01" height="1.01" fill="#000000" x="9.995" y="22.995"></rect><rect opacity="1" width="1.01" height="1.01" fill="#000000" x="11.995" y="22.995"></rect><rect opacity="1" width="1.01" height="1.01" fill="#000000" x="13.995" y="22.995"></rect><rect opacity="1" width="1.01" height="1.01" fill="#000000" x="17.995" y="22.995"></rect><rect opacity="1" width="1.01" height="1.01" fill="#000000" x="19.995" y="22.995"></rect><rect opacity="1" width="1.01" height="1.01" fill="#000000" x="23.995" y="22.995"></rect><rect opacity="1" width="1.01" height="1.01" fill="#000000" x="24.995" y="22.995"></rect><rect opacity="1" width="1.01" height="1.01" fill="#000000" x="9.995" y="23.995"></rect><rect opacity="1" width="1.01" height="1.01" fill="#000000" x="14.995" y="23.995"></rect><rect opacity="1" width="1.01" height="1.01" fill="#000000" x="17.995" y="23.995"></rect><rect opacity="1" width="1.01" height="1.01" fill="#000000" x="18.995" y="23.995"></rect><rect opacity="1" width="1.01" height="1.01" fill="#000000" x="19.995" y="23.995"></rect><rect opacity="1" width="1.01" height="1.01" fill="#000000" x="20.995" y="23.995"></rect><rect opacity="1" width="1.01" height="1.01" fill="#000000" x="21.995" y="23.995"></rect><rect opacity="1" width="1.01" height="1.01" fill="#000000" x="22.995" y="23.995"></rect><rect opacity="1" width="1.01" height="1.01" fill="#000000" x="23.995" y="23.995"></rect><rect opacity="1" width="1.01" height="1.01" fill="#000000" x="24.995" y="23.995"></rect><rect opacity="1" width="1.01" height="1.01" fill="#000000" x="25.995" y="23.995"></rect><rect opacity="1" width="1.01" height="1.01" fill="#000000" x="27.995" y="23.995"></rect><rect fill="#000000" x="2" y="24" width="3" height="3"></rect><rect fill="none" stroke-width="1" stroke="#000000" x="0.5" y="22.5" width="6" height="6"></rect><rect opacity="1" width="1.01" height="1.01" fill="#000000" x="8.995" y="24.995"></rect><rect opacity="1" width="1.01" height="1.01" fill="#000000" x="9.995" y="24.995"></rect><rect opacity="1" width="1.01" height="1.01" fill="#000000" x="11.995" y="24.995"></rect><rect opacity="1" width="1.01" height="1.01" fill="#000000" x="13.995" y="24.995"></rect><rect opacity="1" width="1.01" height="1.01" fill="#000000" x="14.995" y="24.995"></rect><rect opacity="1" width="1.01" height="1.01" fill="#000000" x="16.995" y="24.995"></rect><rect opacity="1" width="1.01" height="1.01" fill="#000000" x="22.995" y="24.995"></rect><rect opacity="1" width="1.01" height="1.01" fill="#000000" x="24.995" y="24.995"></rect><rect opacity="1" width="1.01" height="1.01" fill="#000000" x="25.995" y="24.995"></rect><rect opacity="1" width="1.01" height="1.01" fill="#000000" x="9.995" y="25.995"></rect><rect opacity="1" width="1.01" height="1.01" fill="#000000" x="10.995" y="25.995"></rect><rect opacity="1" width="1.01" height="1.01" fill="#000000" x="13.995" y="25.995"></rect><rect opacity="1" width="1.01" height="1.01" fill="#000000" x="19.995" y="25.995"></rect><rect opacity="1" width="1.01" height="1.01" fill="#000000" x="20.995" y="25.995"></rect><rect opacity="1" width="1.01" height="1.01" fill="#000000" x="22.995" y="25.995"></rect><rect opacity="1" width="1.01" height="1.01" fill="#000000" x="24.995" y="25.995"></rect><rect opacity="1" width="1.01" height="1.01" fill="#000000" x="25.995" y="25.995"></rect><rect opacity="1" width="1.01" height="1.01" fill="#000000" x="9.995" y="26.995"></rect><rect opacity="1" width="1.01" height="1.01" fill="#000000" x="10.995" y="26.995"></rect><rect opacity="1" width="1.01" height="1.01" fill="#000000" x="11.995" y="26.995"></rect><rect opacity="1" width="1.01" height="1.01" fill="#000000" x="13.995" y="26.995"></rect><rect opacity="1" width="1.01" height="1.01" fill="#000000" x="14.995" y="26.995"></rect><rect opacity="1" width="1.01" height="1.01" fill="#000000" x="15.995" y="26.995"></rect><rect opacity="1" width="1.01" height="1.01" fill="#000000" x="17.995" y="26.995"></rect><rect opacity="1" width="1.01" height="1.01" fill="#000000" x="18.995" y="26.995"></rect><rect opacity="1" width="1.01" height="1.01" fill="#000000" x="20.995" y="26.995"></rect><rect opacity="1" width="1.01" height="1.01" fill="#000000" x="21.995" y="26.995"></rect><rect opacity="1" width="1.01" height="1.01" fill="#000000" x="22.995" y="26.995"></rect><rect opacity="1" width="1.01" height="1.01" fill="#000000" x="23.995" y="26.995"></rect><rect opacity="1" width="1.01" height="1.01" fill="#000000" x="26.995" y="26.995"></rect><rect opacity="1" width="1.01" height="1.01" fill="#000000" x="27.995" y="26.995"></rect><rect opacity="1" width="1.01" height="1.01" fill="#000000" x="8.995" y="27.995"></rect><rect opacity="1" width="1.01" height="1.01" fill="#000000" x="11.995" y="27.995"></rect><rect opacity="1" width="1.01" height="1.01" fill="#000000" x="13.995" y="27.995"></rect><rect opacity="1" width="1.01" height="1.01" fill="#000000" x="16.995" y="27.995"></rect><rect opacity="1" width="1.01" height="1.01" fill="#000000" x="17.995" y="27.995"></rect><rect opacity="1" width="1.01" height="1.01" fill="#000000" x="18.995" y="27.995"></rect><rect opacity="1" width="1.01" height="1.01" fill="#000000" x="20.995" y="27.995"></rect><rect opacity="1" width="1.01" height="1.01" fill="#000000" x="22.995" y="27.995"></rect><rect opacity="1" width="1.01" height="1.01" fill="#000000" x="24.995" y="27.995"></rect><rect opacity="1" width="1.01" height="1.01" fill="#000000" x="25.995" y="27.995"></rect></svg>